<?xml version="1.0" standalone="no"?>
<!DOCTYPE svg PUBLIC "-//W3C//DTD SVG 20010904//EN"
 "http://www.w3.org/TR/2001/REC-SVG-20010904/DTD/svg10.dtd">
<svg version="1.0" xmlns="http://www.w3.org/2000/svg"
 width="1024.000000pt" height="1024.000000pt" viewBox="0 0 1024.000000 1024.000000"
 preserveAspectRatio="xMidYMid meet">

<g transform="translate(0.000000,1024.000000) scale(0.100000,-0.100000)"
fill="#000000" stroke="none">
<path d="M1045 6156 c-43 -19 -102 -88 -115 -135 -7 -27 -10 -251 -8 -703 l3
-663 25 -45 c14 -24 44 -58 68 -74 38 -27 52 -30 137 -34 l95 -4 2 -191 c2
-117 7 -192 13 -194 10 -3 116 81 372 294 l112 93 648 0 648 0 52 24 c36 17
60 38 80 67 l28 43 3 693 c2 667 2 694 -17 731 -24 47 -56 77 -103 97 -33 13
-156 15 -1025 15 -792 -1 -994 -3 -1018 -14z m594 -683 c91 -68 96 -185 11
-256 -62 -52 -148 -48 -209 11 -43 41 -58 88 -46 149 8 42 69 108 107 116 43
10 110 -1 137 -20z m501 5 c111 -57 114 -213 4 -275 -49 -28 -95 -29 -150 -2
-117 56 -117 221 -1 278 54 27 92 27 147 -1z m534 -11 c95 -73 79 -220 -31
-269 -79 -35 -149 -13 -201 63 -20 28 -23 44 -20 92 4 46 10 63 34 88 16 17
43 38 59 45 45 21 117 12 159 -19z"/>
<path d="M5030 5233 l0 -538 100 3 100 3 0 535 0 534 -100 0 -100 0 0 -537z"/>
<path d="M5380 5235 l0 -535 106 0 105 0 -2 105 -1 105 47 51 c26 28 48 49 50
47 2 -2 39 -72 83 -157 l80 -153 113 1 c63 1 115 3 116 4 1 2 -54 104 -123
227 -68 123 -123 229 -121 234 3 6 52 68 110 138 57 69 108 131 111 137 5 8
-28 11 -111 11 l-118 -1 -115 -149 c-63 -82 -117 -150 -120 -150 -3 0 -4 139
-2 310 l3 310 -106 0 -105 0 0 -535z"/>
<path d="M3550 5618 l0 -98 140 0 140 0 0 -412 0 -413 105 3 105 3 0 410 0
409 148 0 147 0 -3 97 -3 98 -390 0 -389 0 0 -97z"/>
<path d="M6155 5708 c-3 -7 -4 -238 -3 -513 l3 -500 270 0 c254 1 273 2 325
23 121 48 184 136 184 257 0 53 -5 81 -22 117 -22 44 -83 110 -111 119 -8 3 1
19 22 41 99 105 87 296 -23 391 -76 64 -104 70 -387 75 -205 3 -254 1 -258
-10z m472 -194 c64 -48 64 -165 0 -204 -27 -17 -51 -20 -144 -20 l-113 0 0
126 0 126 114 -4 c97 -2 119 -6 143 -24z m28 -412 c16 -10 39 -35 49 -56 17
-36 18 -43 5 -80 -26 -75 -98 -101 -259 -94 l-75 3 -3 114 c-1 63 0 121 3 129
8 21 239 7 280 -16z"/>
<path d="M4487 5460 c-110 -28 -183 -102 -202 -203 l-7 -37 95 0 95 0 12 30
c16 38 56 60 110 60 79 0 120 -43 120 -125 l0 -33 -122 -4 c-229 -8 -332 -78
-331 -223 1 -100 44 -173 128 -218 31 -16 58 -21 120 -21 88 0 146 21 183 69
22 27 34 32 31 13 -1 -7 -1 -25 0 -40 l1 -28 93 0 92 0 -5 292 c-5 278 -6 295
-27 334 -27 50 -72 90 -133 117 -51 23 -192 32 -253 17z m219 -467 c-3 -21 -5
-49 -5 -61 -1 -35 -60 -89 -105 -98 -56 -10 -112 10 -132 48 -18 34 -12 89 11
108 29 24 91 39 163 40 l73 0 -5 -37z"/>
<path d="M7214 5452 c-99 -34 -174 -121 -174 -200 l0 -32 93 0 92 0 15 33 c19
40 52 57 112 57 67 0 99 -29 105 -97 l5 -50 -98 -6 c-163 -10 -277 -51 -328
-120 -46 -62 -30 -205 31 -278 46 -54 97 -74 193 -74 95 0 151 21 189 72 l20
28 1 -47 0 -48 95 0 96 0 -3 293 c-3 291 -3 293 -29 342 -30 60 -92 109 -161
130 -69 20 -190 19 -254 -3z m243 -483 c-4 -51 -11 -67 -35 -91 -74 -75 -212
-46 -212 45 0 73 55 103 194 106 l59 1 -6 -61z"/>
<path d="M7933 5456 c-66 -21 -113 -56 -144 -105 -25 -39 -29 -55 -29 -115 0
-83 25 -137 80 -173 31 -22 58 -31 230 -80 72 -21 98 -49 86 -96 -8 -34 -38
-49 -97 -49 -55 0 -94 20 -111 58 -11 23 -15 24 -105 24 -91 0 -93 -1 -93 -23
0 -13 12 -48 28 -78 50 -99 157 -146 312 -137 167 10 258 91 267 238 9 132
-58 196 -253 243 -59 14 -115 34 -125 43 -26 23 -25 78 2 105 31 31 113 22
146 -15 13 -15 23 -34 23 -42 0 -11 19 -14 96 -14 l97 0 -6 37 c-11 65 -56
124 -121 157 -50 26 -71 31 -149 33 -58 2 -107 -2 -134 -11z"/>
<path d="M8665 5457 c-62 -21 -97 -42 -136 -84 -76 -79 -115 -205 -106 -338
17 -242 147 -364 376 -353 105 5 162 29 225 91 42 42 82 128 69 150 -2 4 -43
7 -91 7 -86 0 -87 -1 -104 -29 -9 -16 -28 -37 -44 -47 -36 -24 -122 -24 -158
0 -31 20 -63 83 -68 136 l-3 35 238 3 237 2 0 43 c0 178 -69 311 -190 368 -56
27 -186 35 -245 16z m160 -141 c37 -16 64 -58 75 -118 l7 -38 -138 0 -139 0 0
24 c0 53 41 118 85 136 31 13 72 11 110 -4z"/>
</g>
</svg>
