<?xml version="1.0" standalone="no"?>
<!DOCTYPE svg PUBLIC "-//W3C//DTD SVG 20010904//EN"
 "http://www.w3.org/TR/2001/REC-SVG-20010904/DTD/svg10.dtd">
<svg version="1.0" xmlns="http://www.w3.org/2000/svg"
 width="1024.000000pt" height="1024.000000pt" viewBox="0 0 1024.000000 1024.000000"
 preserveAspectRatio="xMidYMid meet">

<g transform="translate(0.000000,1024.000000) scale(0.100000,-0.100000)"
fill="#000000" stroke="none">
<path d="M4005 9249 c-695 -76 -1272 -375 -1696 -881 -345 -412 -517 -841
-560 -1394 -16 -202 -6 -798 15 -954 68 -494 239 -890 531 -1228 345 -399 887
-669 1450 -722 69 -6 564 -10 1327 -10 l1217 0 158 -65 c698 -285 936 -378
986 -388 109 -20 234 20 315 101 61 61 95 138 100 232 4 69 -4 104 -83 417
l-86 342 87 107 c279 345 432 693 511 1164 24 146 26 180 30 595 5 481 -1 591
-52 841 -100 492 -381 965 -764 1285 -204 171 -486 336 -726 425 -55 20 -168
54 -251 75 -270 68 -295 69 -1424 68 -553 -1 -1041 -6 -1085 -10z m2245 -273
c379 -61 682 -187 978 -405 118 -87 352 -324 434 -441 190 -268 310 -552 364
-860 17 -94 19 -162 19 -645 0 -585 -1 -604 -60 -836 -77 -303 -232 -603 -450
-869 -86 -105 -114 -157 -115 -209 0 -19 41 -192 90 -383 50 -192 90 -358 90
-369 0 -56 -69 -115 -123 -106 -18 3 -99 33 -182 67 -82 35 -312 130 -510 212
-198 83 -378 158 -400 167 -36 14 -170 17 -1370 22 -1144 5 -1341 8 -1410 21
-299 58 -524 149 -763 309 -448 298 -735 774 -824 1364 -9 66 -13 222 -13 590
0 535 1 551 56 770 93 370 285 694 577 977 355 343 786 556 1257 622 164 23
143 23 1235 21 906 -1 1026 -3 1120 -19z"/>
<path d="M3648 7894 c-188 -34 -355 -127 -490 -274 -104 -112 -182 -265 -212
-412 -23 -111 -21 -292 4 -396 61 -252 234 -464 473 -577 125 -60 212 -78 377
-79 158 -1 220 11 351 64 230 95 428 323 501 577 20 66 23 101 23 233 0 131
-4 167 -23 235 -125 437 -560 710 -1004 629z m342 -256 c277 -84 464 -352 447
-638 -21 -332 -274 -590 -597 -607 -192 -10 -360 53 -490 185 -127 129 -183
266 -184 442 0 184 59 327 188 455 84 83 155 128 256 160 118 39 260 40 380 3z"/>
<path d="M3685 7252 c-27 -15 -64 -46 -81 -69 -118 -155 -21 -390 169 -410 85
-9 141 11 203 71 42 41 56 63 69 110 26 90 11 159 -52 243 -63 82 -210 109
-308 55z"/>
<path d="M6227 7895 c-179 -34 -333 -120 -463 -258 -165 -175 -244 -376 -244
-617 0 -163 41 -318 120 -452 59 -100 211 -250 310 -305 503 -281 1124 -23
1295 537 22 74 32 289 16 372 -68 359 -309 618 -660 709 -102 27 -272 33 -374
14z m328 -251 c200 -51 375 -217 442 -418 23 -69 27 -98 27 -196 -1 -99 -4
-126 -28 -195 -69 -200 -208 -341 -408 -413 -63 -23 -89 -26 -193 -26 -99 -1
-132 3 -190 23 -211 69 -359 219 -421 426 -24 82 -25 257 -1 344 32 118 74
189 167 282 88 88 138 122 237 159 111 42 239 46 368 14z"/>
<path d="M6340 7278 c-131 -23 -223 -171 -191 -311 26 -116 111 -187 235 -195
64 -3 77 -1 126 25 119 62 173 219 114 335 -59 117 -159 168 -284 146z"/>
<path d="M4355 5901 c-60 -26 -89 -104 -65 -177 18 -53 80 -154 136 -219 86
-101 245 -205 379 -248 72 -24 218 -47 290 -47 72 0 218 23 290 47 215 69 412
235 507 428 38 76 41 100 19 150 -22 49 -61 75 -113 75 -55 0 -89 -30 -137
-119 -139 -258 -403 -371 -721 -310 -152 29 -314 153 -388 297 -22 42 -52 88
-66 101 -27 25 -96 37 -131 22z"/>
<path d="M795 3068 c-3 -13 -4 -302 -3 -643 l3 -620 285 0 c304 1 357 7 451
55 63 33 126 96 156 159 24 49 27 68 28 151 0 79 -4 103 -23 141 -32 65 -98
128 -149 142 -33 8 -40 14 -31 24 6 7 17 13 25 13 8 0 35 22 62 48 58 58 81
119 81 213 0 136 -61 232 -181 289 -88 41 -167 49 -456 50 l-243 0 -5 -22z
m573 -216 c44 -32 62 -71 62 -133 0 -116 -56 -150 -257 -157 l-133 -4 0 162 0
162 148 -4 c135 -3 150 -5 180 -26z m7 -511 c22 -10 51 -31 65 -45 22 -24 25
-37 25 -99 0 -58 -4 -78 -22 -103 -41 -57 -80 -69 -250 -72 l-153 -3 0 170 0
171 148 0 c121 0 154 -4 187 -19z"/>
<path d="M4588 3084 c-5 -4 -8 -295 -8 -646 l0 -638 263 0 c227 0 273 3 345
20 144 35 221 90 273 196 29 58 32 75 32 152 1 106 -25 173 -85 228 -36 32
-60 45 -123 68 -18 7 -17 9 11 21 45 19 102 72 127 119 19 35 22 57 22 146 0
99 -2 108 -31 160 -38 68 -106 121 -193 151 -61 21 -86 23 -346 27 -154 2
-283 0 -287 -4z m525 -218 c97 -41 121 -180 43 -252 -42 -40 -104 -54 -236
-54 l-100 0 0 160 0 160 130 0 c88 0 141 -4 163 -14z m44 -526 c93 -42 122
-172 56 -251 -48 -57 -90 -69 -250 -69 l-143 0 0 170 0 170 148 0 c123 0 154
-4 189 -20z"/>
<path d="M7214 3077 c-2 -7 -4 -107 -2 -220 3 -190 -1 -231 -15 -193 -3 8 -32
27 -64 42 -52 26 -68 29 -158 29 -87 0 -107 -4 -157 -27 -145 -67 -228 -203
-244 -396 -24 -293 126 -506 365 -520 97 -5 172 15 235 63 26 19 48 35 51 35
2 0 5 -19 7 -42 l3 -43 100 0 100 0 0 640 0 640 -108 3 c-83 2 -109 0 -113
-11z m-85 -571 c60 -42 83 -98 89 -215 7 -149 -24 -226 -108 -268 -85 -43
-190 -22 -243 49 -73 99 -75 282 -5 389 54 81 183 103 267 45z"/>
<path d="M8227 3084 c-4 -4 -7 -104 -7 -221 l0 -214 -37 30 c-55 43 -141 65
-228 58 -161 -13 -281 -112 -340 -283 -94 -271 20 -575 241 -644 124 -38 253
-21 338 44 39 29 46 26 46 -21 l0 -34 108 3 107 3 0 640 0 640 -111 3 c-60 1
-113 -1 -117 -4z m-107 -566 c31 -16 54 -38 75 -72 28 -46 30 -57 34 -166 3
-103 0 -123 -19 -168 -29 -66 -81 -104 -154 -110 -144 -12 -230 91 -229 273 1
200 144 318 293 243z"/>
<path d="M2132 2729 c-70 -14 -161 -68 -198 -119 -33 -45 -61 -128 -51 -153 5
-15 179 -43 196 -33 6 4 11 16 11 26 0 10 11 32 25 49 49 57 171 64 237 12 26
-21 48 -79 48 -130 l0 -31 -92 0 c-230 -1 -343 -31 -411 -111 -39 -44 -67
-119 -67 -174 0 -99 63 -195 158 -242 52 -26 67 -28 167 -28 118 0 153 11 223
70 l30 25 14 -42 13 -43 93 -3 93 -3 -3 353 c-3 351 -3 353 -27 402 -31 61
-78 109 -139 140 -82 42 -214 56 -320 35z m265 -591 c-6 -73 -27 -104 -88
-136 -37 -19 -56 -23 -118 -20 -68 3 -75 6 -102 36 -35 39 -38 87 -9 125 32
40 86 54 229 56 l94 1 -6 -62z"/>
<path d="M3012 2725 c-149 -42 -221 -124 -230 -262 -4 -64 -1 -79 22 -127 44
-90 119 -132 282 -161 112 -19 171 -46 180 -79 18 -72 -33 -116 -134 -116 -34
0 -77 6 -96 14 -30 13 -70 52 -79 79 -3 11 -50 4 -159 -24 -45 -11 -48 -30
-18 -88 32 -63 112 -128 187 -151 137 -42 320 -19 414 54 111 84 141 251 66
363 -44 66 -127 107 -272 134 -123 23 -161 39 -177 74 -15 33 6 81 43 100 36
19 120 19 164 1 28 -12 65 -53 77 -88 3 -6 105 10 176 27 28 7 28 24 -4 90
-49 106 -152 163 -304 171 -57 3 -103 -1 -138 -11z"/>
<path d="M3899 2726 c-198 -55 -309 -223 -310 -471 -1 -165 52 -288 161 -374
84 -67 146 -85 285 -86 115 0 123 1 187 32 40 19 85 51 112 78 48 50 93 133
79 145 -4 4 -48 17 -98 29 -84 20 -90 20 -99 4 -64 -117 -235 -136 -328 -37
-30 32 -58 92 -58 124 0 20 5 20 294 20 l295 0 7 46 c7 49 -1 142 -18 214 -35
145 -140 248 -286 279 -68 14 -164 13 -223 -3z m182 -187 c49 -17 96 -65 114
-117 8 -25 15 -49 15 -54 0 -4 -85 -8 -190 -8 -214 0 -207 -3 -171 75 42 91
140 134 232 104z"/>
<path d="M5642 2373 c3 -352 3 -359 27 -410 30 -68 92 -125 167 -153 49 -18
74 -21 149 -18 97 4 153 24 207 75 l27 26 3 -44 3 -44 105 0 105 0 3 463 2
463 -117 -3 -118 -3 -5 -312 c-5 -296 -6 -313 -26 -340 -63 -85 -193 -96 -261
-22 -36 39 -42 99 -43 397 l0 282 -115 0 -116 0 3 -357z"/>
<path d="M8585 2721 c-5 -9 26 -96 249 -686 42 -110 76 -205 76 -211 0 -6 -14
-38 -31 -72 -36 -72 -69 -96 -160 -114 l-64 -13 -3 -109 -3 -109 98 5 c123 6
201 37 267 108 59 63 63 72 183 390 219 580 293 781 293 800 0 20 -5 20 -121
18 l-121 -3 -97 -300 c-53 -165 -101 -309 -105 -320 -9 -23 -16 -4 -137 375
-39 124 -76 231 -81 238 -13 15 -234 17 -243 3z"/>
</g>
</svg>
